Coordinates
version=1
nRows=50
nColumns=16
inDegrees=yes
endheader
time	shoulder_elv_r	shoulder_elv_l	elv_angle_r	elv_angle_l	elbow_flexion_r	elbow_flexion_l	shoulder_rot_r	shoulder_rot_l	pro_sup_r	pro_sup_l	hip_flexion_r	hip_flexion_l	knee_angle_r	knee_angle_l	lumbar_extension
0.000000	80.000000	80.000000	180.000000	180.000000	90.000000	90.000000	-20.000000	-20.000000	-80.000000	-80.000000	0.000000	0.000000	0.000000	0.000000	5.000000
0.040816	78.775510	78.775510	180.000000	180.000000	88.469388	88.469388	-20.000000	-20.000000	-80.000000	-80.000000	0.000000	0.000000	0.000000	0.000000	5.000000
0.081633	77.551020	77.551020	180.000000	180.000000	86.938776	86.938776	-20.000000	-20.000000	-80.000000	-80.000000	0.000000	0.000000	0.000000	0.000000	5.000000
0.122449	76.326531	76.326531	180.000000	180.000000	85.408163	85.408163	-20.000000	-20.000000	-80.000000	-80.000000	0.000000	0.000000	0.000000	0.000000	5.000000
0.163265	75.102041	75.102041	180.000000	180.000000	83.877551	83.877551	-20.000000	-20.000000	-80.000000	-80.000000	0.000000	0.000000	0.000000	0.000000	5.000000
0.204082	73.877551	73.877551	180.000000	180.000000	82.346939	82.346939	-20.000000	-20.000000	-80.000000	-80.000000	0.000000	0.000000	0.000000	0.000000	5.000000
0.244898	72.653061	72.653061	180.000000	180.000000	80.816327	80.816327	-20.000000	-20.000000	-80.000000	-80.000000	0.000000	0.000000	0.000000	0.000000	5.000000
0.285714	71.428571	71.428571	180.000000	180.000000	79.285714	79.285714	-20.000000	-20.000000	-80.000000	-80.000000	0.000000	0.000000	0.000000	0.000000	5.000000
0.326531	70.204082	70.204082	180.000000	180.000000	77.755102	77.755102	-20.000000	-20.000000	-80.000000	-80.000000	0.000000	0.000000	0.000000	0.000000	5.000000
0.367347	68.979592	68.979592	180.000000	180.000000	76.224490	76.224490	-20.000000	-20.000000	-80.000000	-80.000000	0.000000	0.000000	0.000000	0.000000	5.000000
0.408163	67.755102	67.755102	180.000000	180.000000	74.693878	74.693878	-20.000000	-20.000000	-80.000000	-80.000000	0.000000	0.000000	0.000000	0.000000	5.000000
0.448980	66.530612	66.530612	180.000000	180.000000	73.163265	73.163265	-20.000000	-20.000000	-80.000000	-80.000000	0.000000	0.000000	0.000000	0.000000	5.000000
0.489796	65.306122	65.306122	180.000000	180.000000	71.632653	71.632653	-20.000000	-20.000000	-80.000000	-80.000000	0.000000	0.000000	0.000000	0.000000	5.000000
0.530612	64.081633	64.081633	180.000000	180.000000	70.102041	70.102041	-20.000000	-20.000000	-80.000000	-80.000000	0.000000	0.000000	0.000000	0.000000	5.000000
0.571429	62.857143	62.857143	180.000000	180.000000	68.571429	68.571429	-20.000000	-20.000000	-80.000000	-80.000000	0.000000	0.000000	0.000000	0.000000	5.000000
0.612245	61.632653	61.632653	180.000000	180.000000	67.040816	67.040816	-20.000000	-20.000000	-80.000000	-80.000000	0.000000	0.000000	0.000000	0.000000	5.000000
0.653061	60.408163	60.408163	180.000000	180.000000	65.510204	65.510204	-20.000000	-20.000000	-80.000000	-80.000000	0.000000	0.000000	0.000000	0.000000	5.000000
0.693878	59.183673	59.183673	180.000000	180.000000	63.979592	63.979592	-20.000000	-20.000000	-80.000000	-80.000000	0.000000	0.000000	0.000000	0.000000	5.000000
0.734694	57.959184	57.959184	180.000000	180.000000	62.448980	62.448980	-20.000000	-20.000000	-80.000000	-80.000000	0.000000	0.000000	0.000000	0.000000	5.000000
0.775510	56.734694	56.734694	180.000000	180.000000	60.918367	60.918367	-20.000000	-20.000000	-80.000000	-80.000000	0.000000	0.000000	0.000000	0.000000	5.000000
0.816327	55.510204	55.510204	180.000000	180.000000	59.387755	59.387755	-20.000000	-20.000000	-80.000000	-80.000000	0.000000	0.000000	0.000000	0.000000	5.000000
0.857143	54.285714	54.285714	180.000000	180.000000	57.857143	57.857143	-20.000000	-20.000000	-80.000000	-80.000000	0.000000	0.000000	0.000000	0.000000	5.000000
0.897959	53.061224	53.061224	180.000000	180.000000	56.326531	56.326531	-20.000000	-20.000000	-80.000000	-80.000000	0.000000	0.000000	0.000000	0.000000	5.000000
0.938776	51.836735	51.836735	180.000000	180.000000	54.795918	54.795918	-20.000000	-20.000000	-80.000000	-80.000000	0.000000	0.000000	0.000000	0.000000	5.000000
0.979592	50.612245	50.612245	180.000000	180.000000	53.265306	53.265306	-20.000000	-20.000000	-80.000000	-80.000000	0.000000	0.000000	0.000000	0.000000	5.000000
1.020408	49.387755	49.387755	180.000000	180.000000	51.734694	51.734694	-20.000000	-20.000000	-80.000000	-80.000000	0.000000	0.000000	0.000000	0.000000	5.000000
1.061224	48.163265	48.163265	180.000000	180.000000	50.204082	50.204082	-20.000000	-20.000000	-80.000000	-80.000000	0.000000	0.000000	0.000000	0.000000	5.000000
1.102041	46.938776	46.938776	180.000000	180.000000	48.673469	48.673469	-20.000000	-20.000000	-80.000000	-80.000000	0.000000	0.000000	0.000000	0.000000	5.000000
1.142857	45.714286	45.714286	180.000000	180.000000	47.142857	47.142857	-20.000000	-20.000000	-80.000000	-80.000000	0.000000	0.000000	0.000000	0.000000	5.000000
1.183673	44.489796	44.489796	180.000000	180.000000	45.612245	45.612245	-20.000000	-20.000000	-80.000000	-80.000000	0.000000	0.000000	0.000000	0.000000	5.000000
1.224490	43.265306	43.265306	180.000000	180.000000	44.081633	44.081633	-20.000000	-20.000000	-80.000000	-80.000000	0.000000	0.000000	0.000000	0.000000	5.000000
1.265306	42.040816	42.040816	180.000000	180.000000	42.551020	42.551020	-20.000000	-20.000000	-80.000000	-80.000000	0.000000	0.000000	0.000000	0.000000	5.000000
1.306122	40.816327	40.816327	180.000000	180.000000	41.020408	41.020408	-20.000000	-20.000000	-80.000000	-80.000000	0.000000	0.000000	0.000000	0.000000	5.000000
1.346939	39.591837	39.591837	180.000000	180.000000	39.489796	39.489796	-20.000000	-20.000000	-80.000000	-80.000000	0.000000	0.000000	0.000000	0.000000	5.000000
1.387755	38.367347	38.367347	180.000000	180.000000	37.959184	37.959184	-20.000000	-20.000000	-80.000000	-80.000000	0.000000	0.000000	0.000000	0.000000	5.000000
1.428571	37.142857	37.142857	180.000000	180.000000	36.428571	36.428571	-20.000000	-20.000000	-80.000000	-80.000000	0.000000	0.000000	0.000000	0.000000	5.000000
1.469388	35.918367	35.918367	180.000000	180.000000	34.897959	34.897959	-20.000000	-20.000000	-80.000000	-80.000000	0.000000	0.000000	0.000000	0.000000	5.000000
1.510204	34.693878	34.693878	180.000000	180.000000	33.367347	33.367347	-20.000000	-20.000000	-80.000000	-80.000000	0.000000	0.000000	0.000000	0.000000	5.000000
1.551020	33.469388	33.469388	180.000000	180.000000	31.836735	31.836735	-20.000000	-20.000000	-80.000000	-80.000000	0.000000	0.000000	0.000000	0.000000	5.000000
1.591837	32.244898	32.244898	180.000000	180.000000	30.306122	30.306122	-20.000000	-20.000000	-80.000000	-80.000000	0.000000	0.000000	0.000000	0.000000	5.000000
1.632653	31.020408	31.020408	180.000000	180.000000	28.775510	28.775510	-20.000000	-20.000000	-80.000000	-80.000000	0.000000	0.000000	0.000000	0.000000	5.000000
1.673469	29.795918	29.795918	180.000000	180.000000	27.244898	27.244898	-20.000000	-20.000000	-80.000000	-80.000000	0.000000	0.000000	0.000000	0.000000	5.000000
1.714286	28.571429	28.571429	180.000000	180.000000	25.714286	25.714286	-20.000000	-20.000000	-80.000000	-80.000000	0.000000	0.000000	0.000000	0.000000	5.000000
1.755102	27.346939	27.346939	180.000000	180.000000	24.183673	24.183673	-20.000000	-20.000000	-80.000000	-80.000000	0.000000	0.000000	0.000000	0.000000	5.000000
1.795918	26.122449	26.122449	180.000000	180.000000	22.653061	22.653061	-20.000000	-20.000000	-80.000000	-80.000000	0.000000	0.000000	0.000000	0.000000	5.000000
1.836735	24.897959	24.897959	180.000000	180.000000	21.122449	21.122449	-20.000000	-20.000000	-80.000000	-80.000000	0.000000	0.000000	0.000000	0.000000	5.000000
1.877551	23.673469	23.673469	180.000000	180.000000	19.591837	19.591837	-20.000000	-20.000000	-80.000000	-80.000000	0.000000	0.000000	0.000000	0.000000	5.000000
1.918367	22.448980	22.448980	180.000000	180.000000	18.061224	18.061224	-20.000000	-20.000000	-80.000000	-80.000000	0.000000	0.000000	0.000000	0.000000	5.000000
1.959184	21.224490	21.224490	180.000000	180.000000	16.530612	16.530612	-20.000000	-20.000000	-80.000000	-80.000000	0.000000	0.000000	0.000000	0.000000	5.000000
2.000000	20.000000	20.000000	180.000000	180.000000	15.000000	15.000000	-20.000000	-20.000000	-80.000000	-80.000000	0.000000	0.000000	0.000000	0.000000	5.000000
